#!OML:ASF I:\Actors\actors\Patient Classification 1\Patient 1\Session 1\Subject1.ASF
:FULLY-SPECIFIED
:DEGREES
430
root 0.10808 17.6594 8.29691 13.2018 15.2326 -11.6564
lowerback 3.48657 3.06569 5.64462
upperback -0.397562 4.35371 1.01712
thorax -2.02374 2.1137 -2.31774
lowerneck -5.91473 -8.74307 -7.54881
upperneck 13.8306 -13.1426 14.1981
head 6.62776 -5.83058 4.67435
rclavicle 6.40087e-014 7.95139e-015
rhumerus -28.5431 52.566 -32.5067
rradius 61.1885
rwrist -31.4285
rhand 63.9433 -34.2001
rfingers 7.12502
rthumb 74.9713 12.6936
lclavicle 6.40087e-014 7.95139e-015
lhumerus -11.238 -57.7742 14.9484
lradius 61.7326
lwrist 56.3605
lhand 23.0505 -8.23567
lfingers 7.12502
lthumb 47.3655 14.2678
rfemur -7.65944 26.9377 25.5428
rtibia 0.992641
rfoot -20.7813 -38.0364
rtoes 16.4747
lfemur -12.8814 -46.5301 6.22456
ltibia -4.46098
lfoot -6.8924 47.3099
ltoes -2.71404
431
root 0.110566 17.6623 8.30559 13.1035 15.2184 -11.8411
lowerback 3.2581 3.08846 5.97675
upperback -0.333121 4.37762 1.00317
thorax -1.80179 2.12967 -2.49899
lowerneck -5.87124 -8.70558 -7.53755
upperneck 14.0787 -13.1207 14.1834
head 6.69393 -5.81252 4.67268
rclavicle 4.59193e-014 3.57812e-014
rhumerus -28.3976 52.9135 -31.1514
rradius 61.4163
rwrist -31.9373
rhand 65.3503 -34.3688
rfingers 7.12502
rthumb 74.8609 17.7313
lclavicle 4.59193e-014 3.57812e-014
lhumerus -10.2458 -57.004 13.1968
lradius 61.5882
lwrist 56.2666
lhand 23.1192 -8.22692
lfingers 7.12502
lthumb 47.429 14.248
rfemur -7.59509 26.703 25.8234
rtibia 1.07485
rfoot -20.5836 -37.8247
rtoes 15.9193
lfemur -12.6673 -46.0313 6.21292
ltibia -4.52714
lfoot -6.56632 46.8347
ltoes -3.25112
432
root 0.111337 17.6659 8.31001 12.9537 15.1071 -11.9359
lowerback 3.23346 3.11746 6.1732
upperback -0.316806 4.42081 0.985183
thorax -1.75154 2.15095 -2.62489
lowerneck -5.72403 -8.63183 -7.48834
upperneck 14.3175 -13.0368 14.0624
head 6.72128 -5.77476 4.64183
rclavicle 3.12092e-014 3.18055e-015
rhumerus -28.245 53.1315 -29.8165
rradius 61.5088
rwrist -32.2863
rhand 65.8755 -34.4878
rfingers 7.12502
rthumb 74.7873 19.5296
lclavicle 3.12092e-014 3.18055e-015
lhumerus -9.36475 -56.2518 11.6416
lradius 61.3163
lwrist 56.5315
lhand 23.142 -8.29179
lfingers 7.12502
lthumb 47.4501 14.1736
rfemur -7.48467 26.5736 26.0034
rtibia 1.17918
rfoot -20.5107 -37.6085
rtoes 15.7965
lfemur -12.335 -45.6735 6.03307
ltibia -4.57625
lfoot -6.35435 46.5351
ltoes -3.5464
433
root 0.111685 17.6699 8.31441 12.8382 14.9953 -11.9741
lowerback 3.16807 3.1473 6.28009
upperback -0.310796 4.45901 0.972426
thorax -1.69629 2.17075 -2.69354
lowerneck -5.52851 -8.54246 -7.44417
upperneck 14.5036 -12.9384 14.018
head 6.72755 -5.72912 4.64018
rclavicle -3.79679e-014 -3.97569e-015
rhumerus -28.0271 53.1975 -28.4765
rradius 61.4843
rwrist -32.5561
rhand 65.9844 -34.2556
rfingers 7.12502
rthumb 74.7698 20.157
lclavicle -3.79679e-014 -3.97569e-015
lhumerus -8.54126 -55.5077 10.1789
lradius 61.041
lwrist 56.9696
lhand 23.3112 -8.32289
lfingers 7.12502
lthumb 47.6063 14.0715
rfemur -7.3875 26.4801 26.1023
rtibia 1.24369
rfoot -20.4955 -37.434
rtoes 15.7634
lfemur -12.0701 -45.4043 5.84221
ltibia -4.58603
lfoot -6.27736 46.3434
ltoes -3.75665
434
root 0.111528 17.6731 8.32013 12.7903 14.925 -11.9438
lowerback 3.03288 3.17565 6.3007
upperback -0.309623 4.4867 0.962563
thorax -1.61439 2.187 -2.70687
lowerneck -5.52374 -8.45923 -7.70606
upperneck 14.9362 -12.8856 14.2431
head 6.89045 -5.68592 4.76385
rclavicle -3.49861e-014 -4.77083e-014
rhumerus -27.7225 52.9871 -27.1272
rradius 61.2745
rwrist -32.7176
rhand 66.19 -33.9817
rfingers 7.12502
rthumb 74.7349 21.1742
lclavicle -3.49861e-014 -4.77083e-014
lhumerus -7.766 -54.7158 8.82923
lradius 60.7637
lwrist 57.1666
lhand 23.5932 -8.16184
lfingers 7.12502
lthumb 47.8665 14.113
rfemur -7.31552 26.4478 26.1062
rtibia 1.26642
rfoot -20.5323 -37.3401
rtoes 15.8153
lfemur -11.9315 -45.3027 5.67881
ltibia -4.54681
lfoot -6.3663 46.2761
ltoes -3.7738
435
root 0.110831 17.6747 8.32819 12.7561 14.8713 -11.9036
lowerback 2.88911 3.19588 6.27082
upperback -0.325303 4.50221 0.964549
thorax -1.55096 2.19678 -2.6799
lowerneck -5.46369 -8.40745 -7.81538
upperneck 15.2342 -12.8513 14.3077
head 6.98199 -5.66211 4.81087
rclavicle -1.92821e-014 -3.49861e-014
rhumerus -27.3455 52.5334 -25.7874
rradius 60.9123
rwrist -32.8518
rhand 66.679 -33.8917
rfingers 7.12502
rthumb 74.6413 23.0171
lclavicle -1.92821e-014 -3.49861e-014
lhumerus -7.07243 -53.8673 7.66004
lradius 60.4095
lwrist 56.944
lhand 23.918 -8.12962
lfingers 7.12502
lthumb 48.166 14.0054
rfemur -7.21277 26.4745 26.1088
rtibia 1.23901
rfoot -20.5197 -37.321
rtoes 15.844
lfemur -11.7855 -45.3339 5.52809
ltibia -4.53555
lfoot -6.41929 46.3145
ltoes -3.83197
436
root 0.111268 17.6764 8.33624 12.6932 14.852 -11.8946
lowerback 2.80576 3.19933 6.2924
upperback -0.361611 4.5029 0.967025
thorax -1.5403 2.19662 -2.6852
lowerneck -5.39333 -8.35563 -7.79977
upperneck 15.4884 -12.8083 14.2737
head 7.04174 -5.63615 4.80656
rclavicle -1.2921e-014 -1.27222e-014
rhumerus -26.9404 51.9528 -24.4907
rradius 60.4766
rwrist -33.1295
rhand 66.9744 -33.7925
rfingers 7.12502
rthumb 74.5777 24.1644
lclavicle -1.2921e-014 -1.27222e-014
lhumerus -6.45239 -52.9954 6.60726
lradius 60.0624
lwrist 56.4832
lhand 24.1495 -8.26058
lfingers 7.12502
lthumb 48.3791 13.7734
rfemur -7.0899 26.5095 26.1589
rtibia 1.22222
rfoot -20.556 -37.327
rtoes 15.8651
lfemur -11.6127 -45.279 5.38616
ltibia -4.5617
lfoot -6.2658 46.2381
ltoes -4.15402
437
root 0.112708 17.6788 8.34393 12.6157 14.8773 -11.9111
lowerback 2.76882 3.19017 6.36909
upperback -0.410132 4.49304 0.977625
thorax -1.56582 2.1893 -2.71582
lowerneck -5.36736 -8.31433 -7.80665
upperneck 15.7655 -12.7872 14.2863
head 7.12438 -5.61583 4.81731
rclavicle -6.75868e-015 1.19271e-014
rhumerus -26.442 51.2014 -23.1578
rradius 60.0348
rwrist -33.6477
rhand 66.8143 -34.7146
rfingers 7.12502
rthumb 74.6128 22.6755
lclavicle -6.75868e-015 1.19271e-014
lhumerus -5.87268 -52.0701 5.65854
lradius 59.7307
lwrist 56.1537
lhand 24.3618 -8.13613
lfingers 7.12502
lthumb 48.5746 13.8041
rfemur -6.98648 26.5542 26.2356
rtibia 1.25954
rfoot -20.7127 -37.3588
rtoes 16.0746
lfemur -11.4777 -45.1688 5.281
ltibia -4.55594
lfoot -6.20772 46.0774
ltoes -4.2934
438
root 0.113188 17.68 8.35246 12.5582 14.8967 -11.9171
lowerback 2.71884 3.19436 6.40644
upperback -0.446188 4.4983 1.00424
thorax -1.57397 2.19076 -2.70736
lowerneck -5.33261 -8.31616 -7.8748
upperneck 15.9504 -12.8228 14.3778
head 7.19262 -5.62456 4.85764
rclavicle 3.49861e-014 1.59028e-014
rhumerus -25.9652 50.3496 -21.8818
rradius 59.5357
rwrist -33.9167
rhand 66.2308 -35.4181
rfingers 7.12502
rthumb 74.7276 19.8847
lclavicle 3.49861e-014 1.59028e-014
lhumerus -5.28461 -51.034 4.8447
lradius 59.3348
lwrist 55.9891
lhand 24.4846 -7.76119
lfingers 7.12502
lthumb 48.6875 14.1244
rfemur -6.90594 26.6824 26.2901
rtibia 1.3107
rfoot -20.9102 -37.4661
rtoes 16.2865
lfemur -11.373 -45.1338 5.20041
ltibia -4.53384
lfoot -6.1711 46.0199
ltoes -4.3511
439
root 0.114011 17.6798 8.36107 12.5107 14.933 -11.9011
lowerback 2.70064 3.21299 6.43888
upperback -0.485282 4.52529 1.03004
thorax -1.6014 2.2024 -2.69974
lowerneck -5.24386 -8.37907 -8.06965
upperneck 16.0136 -12.9364 14.5756
head 7.23779 -5.67758 4.94658
rclavicle 3.65764e-014 -7.15625e-015
rhumerus -25.8212 49.5987 -20.8952
rradius 58.9512
rwrist -33.4167
rhand 65.6485 -33.6296
rfingers 7.12502
rthumb 74.8212 19.5614
lclavicle 3.65764e-014 -7.15625e-015
lhumerus -4.7081 -49.9165 4.10824
lradius 58.985
lwrist 55.7304
lhand 24.4032 -7.58694
lfingers 7.12502
lthumb 48.6126 14.3349
rfemur -6.82199 26.7062 26.3211
rtibia 1.34188
rfoot -21.0375 -37.4968
rtoes 16.2629
lfemur -11.2689 -45.1734 5.112
ltibia -4.54096
lfoot -6.01228 46.0025
ltoes -4.5886
440
root 0.116063 17.6796 8.3703 12.4558 15.0056 -11.8735
lowerback 2.72501 3.23079 6.50523
upperback -0.548828 4.55669 1.04037
thorax -1.6738 2.21384 -2.73057
lowerneck -5.04243 -8.4868 -8.33736
upperneck 16.0054 -13.1123 14.8366
head 7.25761 -5.76819 5.0656
rclavicle 2.90226e-014 6.36111e-015
rhumerus -25.8036 48.8027 -20.042
rradius 58.3587
rwrist -32.965
rhand 65.33 -31.8694
rfingers 7.12502
rthumb 74.8634 20.1564
lclavicle 2.90226e-014 6.36111e-015
lhumerus -4.23289 -48.7037 3.47821
lradius 58.7924
lwrist 55.2984
lhand 24.0463 -7.83139
lfingers 7.12502
lthumb 48.2842 14.2477
rfemur -6.70032 26.5648 26.348
rtibia 1.30407
rfoot -21.0088 -37.4472
rtoes 16.2046
lfemur -11.1621 -45.221 5.00011
ltibia -4.55155
lfoot -6.01827 45.9362
ltoes -4.66046
441
root 0.118581 17.6789 8.37912 12.3883 14.9873 -11.6676
lowerback 2.78177 3.22265 6.32296
upperback -0.582234 4.54609 1.05526
thorax -1.75611 2.20729 -2.61982
lowerneck -4.86881 -8.54935 -8.47483
upperneck 16.0709 -13.2141 14.9101
head 7.27498 -5.82497 5.10893
rclavicle 1.02573e-013 0
rhumerus -25.4344 47.811 -18.9396
rradius 57.7768
rwrist -33.1048
rhand 65.4577 -31.9396
rfingers 7.12502
rthumb 74.8473 20.5543
lclavicle 1.02573e-013 0
lhumerus -4.06776 -47.398 3.14574
lradius 58.6347
lwrist 55.0932
lhand 23.6803 -8.23093
lfingers 7.12502
lthumb 47.9468 14.0067
rfemur -6.49806 26.529 26.188
rtibia 1.2428
rfoot -20.9897 -37.467
rtoes 16.2113
lfemur -10.9272 -45.4514 4.58669
ltibia -4.52648
lfoot -6.206 46.0675
ltoes -4.50031
442
root 0.122358 17.6771 8.38608 12.311 14.8488 -11.2837
lowerback 2.85095 3.07043 5.75907
upperback -0.60045 4.32993 1.08161
thorax -1.87555 2.10206 -2.28132
lowerneck -4.84393 -8.39877 -8.15628
upperneck 16.4046 -13.0214 14.5812
head 7.30794 -5.72583 4.97338
rclavicle -1.94809e-014 2.10712e-014
rhumerus -24.5015 46.9706 -17.6639
rradius 57.256
rwrist -33.3597
rhand 65.8414 -32.5057
rfingers 7.12502
rthumb 74.7926 21.3877
lclavicle -1.94809e-014 2.10712e-014
lhumerus -4.62145 -46.1974 3.05911
lradius 58.498
lwrist 55.5629
lhand 23.7438 -8.33254
lfingers 7.12502
lthumb 48.0054 13.8778
rfemur -6.25608 26.5483 25.8281
rtibia 1.2282
rfoot -21.0213 -37.4392
rtoes 16.1824
lfemur -10.526 -45.9555 3.86055
ltibia -4.50159
lfoot -6.45098 46.4971
ltoes -4.20015
443
root 0.125184 17.6758 8.39385 12.2581 14.7968 -11.1115
lowerback 2.81746 2.78589 5.29403
upperback -0.670528 3.93631 1.1445
thorax -1.99526 1.90736 -1.94823
lowerneck -4.81657 -8.1024 -7.53709
upperneck 16.836 -12.6473 14.1315
head 7.32344 -5.52721 4.76936
rclavicle -1.59028e-015 -1.98785e-014
rhumerus -23.2601 46.3836 -16.5125
rradius 56.7287
rwrist -33.4247
rhand 66.2773 -32.8783
rfingers 7.12502
rthumb 74.7193 22.5919
lclavicle -1.59028e-015 -1.98785e-014
lhumerus -5.5523 -45.2188 2.90225
lradius 58.4178
lwrist 56.3317
lhand 23.9761 -8.31002
lfingers 7.12502
lthumb 48.2194 13.7998
rfemur -6.12421 26.5577 25.6835
rtibia 1.25571
rfoot -21.0284 -37.4378
rtoes 16.0995
lfemur -10.2896 -46.2 3.49325
ltibia -4.50009
lfoot -6.6781 46.6762
ltoes -3.81449
444
root 0.12592 17.6767 8.40182 12.218 14.8377 -11.1348
lowerback 2.75982 2.60921 5.16379
upperback -0.723363 3.69688 1.23543
thorax -2.04841 1.78809 -1.77346
lowerneck -4.7946 -7.95776 -7.31845
upperneck 17.0338 -12.4694 13.9901
head 7.33819 -5.43295 4.70875
rclavicle 5.80451e-014 -1.90833e-014
rhumerus -22.3367 45.789 -15.452
rradius 56.1569
rwrist -33.2624
rhand 66.8991 -33.0571
rfingers 7.12502
rthumb 74.5944 24.6336
lclavicle 5.80451e-014 -1.90833e-014
lhumerus -5.94179 -44.2746 2.59352
lradius 58.3096
lwrist 56.7313
lhand 24.2003 -8.40997
lfingers 7.12502
lthumb 48.426 13.6016
rfemur -6.07143 26.6067 25.7491
rtibia 1.29734
rfoot -21.085 -37.5166
rtoes 16.0513
lfemur -10.2415 -46.0566 3.46483
ltibia -4.48703
lfoot -6.7615 46.4849
ltoes -3.65915
